<svg width="28" height="28" viewBox="0 0 28 28" fill="none" xmlns="http://www.w3.org/2000/svg">
<g id="geo-location">
<path id="Vector" fill-rule="evenodd" clip-rule="evenodd" d="M13.6638 24.3934C13.664 24.3935 13.6642 24.3936 14 23.9167L13.6638 24.3934ZM14.3363 24.3934L14.3384 24.3918L14.3437 24.3881L14.3622 24.3748C14.3782 24.3634 14.4011 24.3468 14.4305 24.3252C14.4893 24.282 14.5742 24.2187 14.6814 24.1363C14.8959 23.9714 15.2 23.7297 15.564 23.4184C16.2912 22.7967 17.2613 21.8941 18.233 20.7701C20.1623 18.5383 22.1667 15.353 22.1667 11.7115C22.1667 9.53482 21.3071 7.44654 19.776 5.90631C18.2447 4.36598 16.1671 3.5 14 3.5C11.833 3.5 9.75542 4.36598 8.22411 5.90631C6.69297 7.44654 5.83337 9.53482 5.83337 11.7115C5.83337 15.353 7.83777 18.5383 9.76708 20.7701C10.7387 21.8941 11.7089 22.7967 12.4361 23.4184C12.8001 23.7297 13.1042 23.9714 13.3186 24.1363C13.4259 24.2187 13.5108 24.282 13.5696 24.3252C13.599 24.3468 13.6219 24.3634 13.6378 24.3748L13.6564 24.3881L13.6617 24.3918L13.6638 24.3934C13.8652 24.5352 14.1349 24.5352 14.3363 24.3934ZM14 23.9167L14.3363 24.3934C14.336 24.3935 14.3359 24.3936 14 23.9167ZM16.9167 11.6667C16.9167 13.2775 15.6109 14.5833 14 14.5833C12.3892 14.5833 11.0834 13.2775 11.0834 11.6667C11.0834 10.0558 12.3892 8.75 14 8.75C15.6109 8.75 16.9167 10.0558 16.9167 11.6667Z" fill="#333333"/>
</g>
</svg>
