<svg width="20" height="20" viewBox="0 0 20 21" fill="none" xmlns="http://www.w3.org/2000/svg">
<path d="M14.6562 13.5813C14.482 13.4065 14.275 13.2678 14.0471 13.1731C13.8192 13.0785 13.5749 13.0298 13.3281 13.0298C13.0813 13.0298 12.837 13.0785 12.6091 13.1731C12.3812 13.2678 12.1742 13.4065 12 13.5813L11.0937 14.4875C10.0734 13.8399 9.12799 13.0811 8.27498 12.225C7.41888 11.372 6.66007 10.4266 6.01248 9.40627L6.91873 8.50002C7.09353 8.32583 7.23222 8.11884 7.32686 7.89093C7.42149 7.66302 7.47021 7.41867 7.47021 7.17189C7.47021 6.92512 7.42149 6.68077 7.32686 6.45286C7.23222 6.22495 7.09353 6.01796 6.91873 5.84377L5.14998 4.08127C4.97825 3.90589 4.77301 3.76683 4.54646 3.67234C4.31991 3.57786 4.07669 3.52988 3.83123 3.53127C3.58403 3.53066 3.33915 3.57894 3.11068 3.67334C2.88222 3.76773 2.67467 3.90636 2.49998 4.08127L1.64998 4.92502C1.24484 5.36062 0.942462 5.88148 0.765083 6.44931C0.587704 7.01714 0.53983 7.61751 0.624979 8.20627C0.824979 10.55 2.36248 13.3688 4.73123 15.7438C7.09998 18.1188 9.94998 19.65 12.2937 19.875C12.4686 19.8844 12.6439 19.8844 12.8187 19.875C13.3232 19.8962 13.8269 19.8164 14.3002 19.6404C14.7735 19.4644 15.2069 19.1957 15.575 18.85L16.4187 18C16.5936 17.8253 16.7323 17.6178 16.8267 17.3893C16.9211 17.1608 16.9693 16.916 16.9687 16.6688C16.9701 16.4233 16.9221 16.1801 16.8277 15.9535C16.7332 15.727 16.5941 15.5218 16.4187 15.35L14.6562 13.5813ZM16.625 3.86877C15.7564 2.99688 14.7238 2.30554 13.5868 1.83463C12.4497 1.36372 11.2307 1.12255 9.99998 1.12502C9.83422 1.12502 9.67525 1.19087 9.55804 1.30808C9.44083 1.42529 9.37498 1.58426 9.37498 1.75002C9.37498 1.91578 9.44083 2.07475 9.55804 2.19196C9.67525 2.30917 9.83422 2.37502 9.99998 2.37502C11.0728 2.37498 12.135 2.5874 13.1252 3.00001C14.1155 3.41262 15.0143 4.01726 15.7697 4.77903C16.525 5.5408 17.1221 6.44463 17.5263 7.43835C17.9306 8.43207 18.1341 9.49601 18.125 10.5688C18.125 10.7345 18.1908 10.8935 18.308 11.0107C18.4252 11.1279 18.5842 11.1938 18.75 11.1938C18.9157 11.1938 19.0747 11.1279 19.1919 11.0107C19.3091 10.8935 19.375 10.7345 19.375 10.5688C19.3869 9.32498 19.1498 8.09138 18.6775 6.94068C18.2052 5.78999 17.5073 4.7455 16.625 3.86877Z" fill="white"/>
<path d="M13.0688 7.4437C13.4235 7.79625 13.7041 8.2162 13.8941 8.67881C14.0841 9.14142 14.1796 9.63737 14.175 10.1375C14.175 10.3032 14.2409 10.4622 14.3581 10.5794C14.4753 10.6966 14.6343 10.7625 14.8 10.7625C14.9658 10.7625 15.1248 10.6966 15.242 10.5794C15.3592 10.4622 15.425 10.3032 15.425 10.1375C15.4333 9.4756 15.3101 8.8187 15.0625 8.20483C14.815 7.59097 14.448 7.03238 13.9829 6.56144C13.5177 6.09051 12.9638 5.71662 12.353 5.46144C11.7423 5.20627 11.087 5.0749 10.425 5.07495C10.2593 5.07495 10.1003 5.1408 9.98311 5.25801C9.8659 5.37522 9.80005 5.53419 9.80005 5.69995C9.80005 5.86571 9.8659 6.02468 9.98311 6.14189C10.1003 6.2591 10.2593 6.32495 10.425 6.32495C10.9176 6.32866 11.4046 6.42937 11.8582 6.62133C12.3118 6.81329 12.7232 7.09273 13.0688 7.4437Z" fill="white"/>
</svg>
