<svg width="20" height="20" viewBox="0 0 20 20" fill="none" xmlns="http://www.w3.org/2000/svg">
<g clip-path="url(#clip0_22_1332)">
<path d="M17.5563 1.94754C17.0389 1.49338 14.9433 0.0333767 10.2763 0.0142101C10.2763 0.0142101 4.76937 -0.301623 2.08676 2.05754C0.594584 3.48754 0.0719747 5.58171 0.0119747 8.17921C-0.0480253 10.7767 -0.114982 15.645 4.78154 16.9684H4.78589L4.78154 18.9842C4.78154 18.9842 4.74937 19.8009 5.30937 19.965C5.98589 20.1684 6.38589 19.5467 7.03371 18.8784C7.3885 18.5109 7.87719 17.9725 8.2485 17.5617C8.77024 17.6109 9.37545 17.6384 9.9885 17.6384C11.5772 17.6384 13.1207 17.4509 14.5955 17.0975L14.465 17.1242C15.1415 16.9134 18.9694 16.4442 19.5885 11.5767C20.2355 6.55171 19.2807 3.38171 17.5563 1.94754ZM18.1233 11.21C17.5955 15.2725 14.4946 15.5309 13.9241 15.7059C12.6789 16.0092 11.2494 16.1825 9.77719 16.1825C9.35458 16.1825 8.93545 16.1684 8.52067 16.14L8.57632 16.1434C8.57632 16.1434 6.45632 18.5925 5.79632 19.2292C5.58067 19.4359 5.34328 19.4192 5.34763 19.0067C5.34763 18.7375 5.36415 15.6584 5.36415 15.6584C1.21893 14.5567 1.45893 10.41 1.50763 8.24421C1.55632 6.07838 1.98067 4.29838 3.24415 3.10338C5.51545 1.13088 10.1911 1.42338 10.1911 1.42338C14.1415 1.43921 16.0328 2.58004 16.4728 2.96254C17.9285 4.15838 18.6702 7.01921 18.1233 11.21ZM12.4615 8.05338V8.06504C12.4615 8.20504 12.3433 8.31838 12.1972 8.31838C12.0555 8.31838 11.9398 8.21171 11.9337 8.07754C11.9372 8.04254 11.9398 8.00004 11.9398 7.95921C11.9398 7.29171 11.3755 6.75088 10.6789 6.75088C10.6528 6.75088 10.6268 6.75171 10.6015 6.75338H10.605C10.465 6.74588 10.3546 6.63588 10.3546 6.50088C10.3546 6.36088 10.4728 6.24754 10.6189 6.24754H10.6337H10.6328C10.6502 6.24671 10.672 6.24671 10.6928 6.24671C11.672 6.24671 12.465 7.00671 12.465 7.94504C12.465 7.98338 12.4633 8.02171 12.4607 8.05921V8.05421L12.4615 8.05338ZM13.2885 8.49588C13.3294 6.83921 12.2494 5.54254 10.1989 5.39754C10.0607 5.38838 9.95284 5.27838 9.95284 5.14504C9.95284 5.00504 10.0711 4.89171 10.2172 4.89171C10.2233 4.89171 10.2302 4.89171 10.2363 4.89254H10.2355H10.2502C12.2215 4.89254 13.8207 6.42421 13.8207 8.31421C13.8207 8.38171 13.8189 8.44921 13.8146 8.51588L13.8155 8.50671C13.812 8.64421 13.6955 8.75338 13.552 8.75338C13.4059 8.75338 13.2876 8.64004 13.2876 8.50004C13.2876 8.49754 13.2876 8.49588 13.2876 8.49338L13.2885 8.49588ZM15.2015 9.02004V9.02171C15.2015 9.16171 15.0833 9.27504 14.9372 9.27504C14.7911 9.27504 14.6746 9.16254 14.6737 9.02421C14.6528 5.83921 12.4363 4.10504 9.75024 4.08671C9.60415 4.08671 9.48676 3.97338 9.48676 3.83421C9.48676 3.69504 9.60502 3.58171 9.75024 3.58171C12.7581 3.60171 15.1755 5.59088 15.1998 9.01921L15.2015 9.02004ZM14.745 12.8517V12.8592C14.305 13.6017 13.4815 14.4217 12.6337 14.16L12.6259 14.1484C11.0328 13.5784 9.65545 12.8334 8.42502 11.9159L8.46067 11.9409C7.81458 11.4475 7.24676 10.9034 6.7485 10.305L6.73197 10.2842C6.28937 9.75254 5.87458 9.15754 5.51284 8.52921L5.47806 8.46338C5.08067 7.84171 4.72154 7.12338 4.44067 6.36921L4.41458 6.28754C4.14154 5.47504 4.99284 4.68588 5.77197 4.26421H5.7798C5.89284 4.19504 6.03024 4.15338 6.17806 4.15338C6.41024 4.15338 6.61719 4.25588 6.75371 4.41504L6.75458 4.41671C6.75458 4.41671 7.2598 4.99421 7.47632 5.28004C7.6798 5.54588 7.95371 5.97171 8.09545 6.20921C8.17719 6.33171 8.22502 6.48171 8.22502 6.64254C8.22502 6.88254 8.11719 7.09838 7.94502 7.24754L7.94415 7.24838L7.45545 7.62338C7.32067 7.74838 7.23719 7.92338 7.23719 8.11671C7.23719 8.13588 7.23806 8.15421 7.2398 8.17254V8.17004C7.74328 9.75588 9.02067 10.98 10.6398 11.4542L10.6763 11.4634C10.6928 11.465 10.7128 11.4659 10.732 11.4659C10.9337 11.4659 11.1163 11.3859 11.2468 11.2575L11.6381 10.7892C11.7946 10.6234 12.0198 10.52 12.2702 10.52C12.4381 10.52 12.5937 10.5667 12.7259 10.6467L12.7224 10.645C13.4294 11.0309 14.0407 11.455 14.5981 11.9359L14.5885 11.9275C14.7555 12.0559 14.8607 12.2517 14.8607 12.4709C14.8607 12.6117 14.8172 12.7425 14.7415 12.8525L14.7433 12.85L14.745 12.8517Z" fill="white"/>
</g>
<defs>
<clipPath id="clip0_22_1332">
<rect width="20" height="20" fill="white"/>
</clipPath>
</defs>
</svg>
