<svg width="20" height="20" viewBox="0 0 20 20" fill="none" xmlns="http://www.w3.org/2000/svg">
<g clip-path="url(#clip0_22_1320)">
<path d="M9.78497 15.0325H10.98C10.98 15.0325 11.3412 14.9925 11.525 14.7938C11.695 14.6113 11.6887 14.2688 11.6887 14.2688C11.6887 14.2688 11.665 12.665 12.41 12.4288C13.1437 12.1963 14.0862 13.9788 15.085 14.665C15.84 15.1838 16.4137 15.07 16.4137 15.07L19.085 15.0325C19.085 15.0325 20.4825 14.9463 19.82 13.8475C19.7662 13.7575 19.4337 13.035 17.8337 11.55C16.1587 9.99503 16.3837 10.2475 18.4012 7.55878C19.63 5.92128 20.1212 4.92128 19.9675 4.49378C19.8212 4.08628 18.9175 4.19378 18.9175 4.19378L15.9125 4.21128C15.9125 4.21128 15.69 4.18128 15.5237 4.28003C15.3625 4.37753 15.2587 4.60253 15.2587 4.60253C15.2587 4.60253 14.7825 5.87003 14.1475 6.94753C12.8087 9.22128 12.2725 9.34128 12.0537 9.20003C11.545 8.87128 11.6725 7.87753 11.6725 7.17253C11.6725 4.96878 12.0062 4.05003 11.0212 3.81253C10.6937 3.73378 10.4537 3.68128 9.61747 3.67253C8.54497 3.66128 7.63622 3.67628 7.12247 3.92753C6.77997 4.09503 6.51622 4.46878 6.67747 4.49003C6.87622 4.51628 7.32622 4.61128 7.56497 4.93628C7.87372 5.35503 7.86247 6.29753 7.86247 6.29753C7.86247 6.29753 8.03997 8.89128 7.44872 9.21378C7.04247 9.43503 6.48622 8.98378 5.29247 6.92003C4.68122 5.86378 4.21872 4.69503 4.21872 4.69503C4.21872 4.69503 4.12997 4.47753 3.97122 4.36128C3.77872 4.22003 3.50872 4.17503 3.50872 4.17503L0.651224 4.19253C0.651224 4.19253 0.222474 4.20503 0.0649739 4.39128C-0.0750261 4.55753 0.0537239 4.90003 0.0537239 4.90003C0.0537239 4.90003 2.29122 10.1338 4.82372 12.7725C7.14747 15.1913 9.78497 15.0325 9.78497 15.0325Z" fill="white"/>
</g>
<defs>
<clipPath id="clip0_22_1320">
<rect width="20" height="20" fill="white"/>
</clipPath>
</defs>
</svg>
