<svg width="20" height="20" viewBox="0 0 20 20" fill="none" xmlns="http://www.w3.org/2000/svg">
<path d="M13.8334 11.6667C13.6667 11.5834 12.5834 11.0834 12.4167 11C12.25 10.9167 12.0834 10.9167 11.9167 11.0834C11.75 11.25 11.4167 11.75 11.25 11.9167C11.1667 12.0834 11 12.0834 10.8334 12C10.25 11.75 9.66669 11.4167 9.16669 11C8.75002 10.5834 8.33335 10.0834 8.00002 9.58337C7.91669 9.41671 8.00002 9.25004 8.08335 9.16671C8.16669 9.08337 8.25002 8.91671 8.41669 8.83337C8.50002 8.75004 8.58335 8.58337 8.58335 8.50004C8.66669 8.41671 8.66669 8.25004 8.58335 8.16671C8.50002 8.08337 8.08335 7.08337 7.91669 6.66671C7.83335 6.08337 7.66669 6.08337 7.50002 6.08337H7.08335C6.91669 6.08337 6.66669 6.25004 6.58335 6.33337C6.08335 6.83337 5.83335 7.41671 5.83335 8.08337C5.91669 8.83337 6.16669 9.58337 6.66669 10.25C7.58335 11.5834 8.75002 12.6667 10.1667 13.3334C10.5834 13.5 10.9167 13.6667 11.3334 13.75C11.75 13.9167 12.1667 13.9167 12.6667 13.8334C13.25 13.75 13.75 13.3334 14.0834 12.8334C14.25 12.5 14.25 12.1667 14.1667 11.8334L13.8334 11.6667ZM15.9167 4.08337C12.6667 0.833374 7.41669 0.833374 4.16669 4.08337C1.50002 6.75004 1.00002 10.8334 2.83335 14.0834L1.66669 18.3334L6.08335 17.1667C7.33335 17.8334 8.66669 18.1667 10 18.1667C14.5834 18.1667 18.25 14.5 18.25 9.91671C18.3334 7.75004 17.4167 5.66671 15.9167 4.08337ZM13.6667 15.75C12.5834 16.4167 11.3334 16.8334 10 16.8334C8.75002 16.8334 7.58335 16.5 6.50002 15.9167L6.25002 15.75L3.66669 16.4167L4.33335 13.9167L4.16669 13.6667C2.16669 10.3334 3.16669 6.16671 6.41669 4.08337C9.66669 2.00004 13.8334 3.08337 15.8334 6.25004C17.8334 9.50004 16.9167 13.75 13.6667 15.75Z" fill="white"/>
</svg>
